{"title":"A Woman Under the Influence (1974) BRRip Criterion x264 + Ukr su","uid":9303343,"size":1008968377,"categoryP":"video","categoryS":"movies","magnet":"?xt=urn:btih:b391a6e2b3bacf6f3388e76017835c692dfa31aa&amp;dn=A+Woman+Under+the+Influence+%281974%29+BRRip+Criterion+x264+%2B+Ukr+su&amp;tr=udp%3A%2F%2Ftracker.openbittorrent.com%3A80&amp;tr=udp%3A%2F%2Fopen.demonii.com%3A1337&amp;tr=udp%3A%2F%2Ftracker.coppersurfer.tk%3A6969&amp;tr=udp%3A%2F%2Fexodus.desync.com%3A6969","seeders":0,"leechers":0,"uploader":"orysia","files":-1,"time":1386277412,"description":"Mabel, a wife and mother, is loved by her husband Nick but her madness proves to be a problem in the marriage. The film transpires to a positive role of madness in the family, challenging conventional representations of madness in cinema.\n\n\nDirector &amp; Writer: John Cassavetes\nStars: Gena Rowlands, Peter Falk, Fred Draper\n\nFormat                           : MPEG-4\nFormat profile                   : Base Media\nCodec ID                         : isom\nFile size                        : 962 MiB\nDuration                         : 2h 27mn\nOverall bit rate                 : 915 Kbps\nMovie name                       : A Woman Under the Influence*1974 /antusyrzhuk\nGenre                            : Drama\nEncoded date                     : 1974\nTagged date                      : UTC 2013-11-29 08:58:23\nWriting application              : Yamb 2.0.0.8 [http://yamb.unite-video.com]\nComment                          : http://cinemasterpiece(dot)wordpress(dot)com/\n\nVideo\nID                               : 1\nFormat                           : AVC\nFormat/Info                      : Advanced Video Codec\nFormat profile                   : &lt;a class=&quot;__cf_email__&quot; href=&quot;/cdn-cgi/l/email-protection&quot; data-cfemail=&quot;cf87a6a8a78f83fce1fd&quot;&gt;[email&amp;#160;protected]&lt;/a&gt;&lt;script data-cfhash='f9e31' type=&quot;text/javascript&quot;&gt;\n/* &lt;![CDATA[ */!function(){try{var t=&quot;currentScript&quot;in document?document.currentScript:function(){for(var t=document.getElementsByTagName(&quot;script&quot;),e=t.length;e--;)if(t[e].getAttribute(&quot;data-cfhash&quot;))return t[e]}();if(t&amp;&amp;t.previousSibling){var e,r,n,i,c=t.previousSibling,a=c.getAttribute(&quot;data-cfemail&quot;);if(a){for(e=&quot;&quot;,r=parseInt(a.substr(0,2),16),n=2;a.length-n;n+=2)i=parseInt(a.substr(n,2),16)^r,e+=String.fromCharCode(i);e=document.createTextNode(e),c.parentNode.replaceChild(e,c)}t.parentNode.removeChild(t);}}catch(u){}}()/* ]]&gt; */&lt;/script&gt;\nFormat settings, CABAC           : Yes\nFormat settings, ReFrames        : 5 frames\nFormat settings, GOP             : M=4, N=32\nCodec ID                         : avc1\nCodec ID/Info                    : Advanced Video Coding\nDuration                         : 2h 27mn\nBit rate mode                    : Variable\nBit rate                         : 855 Kbps\nMaximum bit rate                 : 3 050 Kbps\nWidth                            : 800 pixels\nHeight                           : 462 pixels\nDisplay aspect ratio             : 16:9\nFrame rate mode                  : Constant\nFrame rate                       : 23.976 fps\nColor space                      : YUV\nChroma subsampling               : 4:2:0\nBit depth                        : 8 bits\nScan type                        : Progressive\nBits/(Pixel*Frame)               : 0.096\nStream size                      : 899 MiB (93%)\nWriting library                  : x264 core 123 r2189 35cf912\nEncoding settings                : cabac=1 / ref=5 / deblock=1:-2:-2 / analyse=0x3:0x133 / me=umh / subme=8 / psy=1 / psy_rd=1.00:0.40 / mixed_ref=1 / me_range=16 / chroma_me=1 / trellis=1 / 8x8dct=1 / cqm=0 / deadzone=21,11 / fast_pskip=1 / chroma_qp_offset=-4 / threads=3 / sliced_threads=0 / nr=0 / decimate=1 / interlaced=0 / bluray_compat=0 / constrained_intra=0 / bframes=3 / b_pyramid=2 / b_adapt=1 / b_bias=0 / direct=1 / weightb=1 / open_gop=0 / weightp=2 / keyint=250 / keyint_min=25 / scenecut=40 / intra_refresh=0 / rc_lookahead=40 / rc=2pass / mbtree=1 / bitrate=855 / ratetol=1.0 / qcomp=0.60 / qpmin=10 / qpmax=51 / qpstep=4 / cplxblur=20.0 / qblur=0.5 / ip_ratio=1.30 / aq=1:1.00\nTagged date                      : UTC 2013-11-29 08:59:23\n\nAudio\nID                               : 2\nFormat                           : AAC\nFormat/Info                      : Advanced Audio Codec\nFormat version                   : Version 4\nFormat profile                   : LC\nFormat settings, SBR             : No\nFormat settings, PS              : Yes\nCodec ID                         : 40\nDuration                         : 2h 27mn\nBit rate mode                    : Variable\nBit rate                         : 56.0 Kbps\nMaximum bit rate                 : 103 Kbps\nChannel(s)                       : 2 channels\nChannel positions                : Front: L R\nSampling rate                    : 48.0 KHz\nStream size                      : 58.9 MiB (6%)\nLanguage                         : English\nEncoded date                     : UTC 2013-11-29 08:59:14\nTagged date                      : UTC 2013-11-29 08:59:23\n\nUkrainian subtitles are HARDCODED\n\nScreenshots: &lt;a href=&quot;\nhttp://img19.imageshack.us/img19/4777/k995.png&quot; rel=&quot;nofollow&quot; target=&quot;_NEW&quot;&gt;\nhttp://img19.imageshack.us/img19/4777/k995.png&lt;/a&gt; &lt;a href=&quot;\nhttp://img854.imageshack.us/img854/5885/psvd.png&quot; rel=&quot;nofollow&quot; target=&quot;_NEW&quot;&gt;\nhttp://img854.imageshack.us/img854/5885/psvd.png&lt;/a&gt; &lt;a href=&quot;\nhttp://img191.imageshack.us/img191/6977/1oix.png&quot; rel=&quot;nofollow&quot; target=&quot;_NEW&quot;&gt;\nhttp://img191.imageshack.us/img191/6977/1oix.png&lt;/a&gt; &lt;a href=&quot;\nhttp://img19.imageshack.us/img19/4332/nkc1.png&quot; rel=&quot;nofollow&quot; target=&quot;_NEW&quot;&gt;\nhttp://img19.imageshack.us/img19/4332/nkc1.png&lt;/a&gt; &lt;a href=&quot;\nhttp://img541.imageshack.us/img541/1323/rpun.png&quot; rel=&quot;nofollow&quot; target=&quot;_NEW&quot;&gt;\nhttp://img541.imageshack.us/img541/1323/rpun.png&lt;/a&gt;","torrent":{"xt":"urn:btih:b391a6e2b3bacf6f3388e76017835c692dfa31aa","amp;dn":"A+Woman+Under+the+Influence+%281974%29+BRRip+Criterion+x264+%2B+Ukr+su","amp;tr":["udp%3A%2F%2Ftracker.openbittorrent.com%3A80","udp%3A%2F%2Fopen.demonii.com%3A1337","udp%3A%2F%2Ftracker.coppersurfer.tk%3A6969","udp%3A%2F%2Fexodus.desync.com%3A6969"],"infoHash":"b391a6e2b3bacf6f3388e76017835c692dfa31aa","infoHashBuffer":{"type":"Buffer","data":[179,145,166,226,179,186,207,111,51,136,231,96,23,131,92,105,45,250,49,170]},"announce":[],"urlList":[]}}